<?xml version="1.0" encoding="utf-8"?>
<!-- Generator: Adobe Illustrator 25.2.0, SVG Export Plug-In . SVG Version: 6.00 Build 0)  -->
<svg version="1.1" id="Layer_1" xmlns="http://www.w3.org/2000/svg" xmlns:xlink="http://www.w3.org/1999/xlink" x="0px" y="0px"
	 viewBox="0 0 330 105.8" style="enable-background:new 0 0 330 105.8;" xml:space="preserve">
<style type="text/css">
	.st0{fill:#240635;}
	.st1{fill:#005691;}
	.st2{fill:#007BD4;}
	.st3{fill:#009EFB;}
	.st4{fill:#FFFFFF;}
	.st5{fill:#F2EBF7;}
	.st6{fill:#F50061;}
	.st7{fill:#FF4142;}
	.st8{fill:#FFAB00;}
</style>
<g>
	<g>
		<path class="st0" d="M67.5,50.1c-1.7,0-2.5-0.8-2.5-2.5V3.2c0-1.7,0.8-2.5,2.5-2.5h30.6c1.7,0,2.5,0.8,2.5,2.5v8.2
			c0,1.7-0.8,2.5-2.5,2.5H80.6V21h11.9c1.7,0,2.5,0.8,2.5,2.5v8.2c0,1.7-0.8,2.5-2.5,2.5H80.6v13.5c0,1.7-0.8,2.5-2.5,2.5H67.5z"/>
		<path class="st0" d="M124.9,51.2c-17,0-21.2-5.6-21.2-14v-34c0-1.7,0.8-2.5,2.5-2.5h10.8c1.7,0,2.5,0.8,2.5,2.5v31.3
			c0,1.9,0.8,3.2,5.6,3.2c4.9,0,5.7-1.4,5.7-3.2V3.2c0-1.7,0.7-2.5,2.5-2.5h10.4c1.7,0,2.5,0.8,2.5,2.5v34
			C146.1,45.5,141.9,51.2,124.9,51.2z"/>
		<path class="st0" d="M154.3,50.1c-1.7,0-2.5-0.8-2.5-2.5V3.2c0-1.7,0.8-2.5,2.5-2.5h7.1c1.8,0,2.9,0.5,4,1.9l13.3,15.2V3.2
			c0-1.7,0.8-2.5,2.5-2.5h10.3c1.7,0,2.5,0.8,2.5,2.5v44.5c0,1.7-0.8,2.5-2.5,2.5h-10.3c-1.7,0-2.5-0.8-2.5-2.5v-8.4L167,25v22.6
			c0,1.7-0.8,2.5-2.5,2.5H154.3z"/>
		<path class="st0" d="M202.5,50.1c-1.7,0-2.5-0.8-2.5-2.5V3.2c0-1.7,0.8-2.5,2.5-2.5h7.1c1.8,0,2.9,0.5,4,1.9L227,17.8V3.2
			c0-1.7,0.8-2.5,2.5-2.5h10.3c1.7,0,2.5,0.8,2.5,2.5v44.5c0,1.7-0.8,2.5-2.5,2.5h-10.3c-1.7,0-2.5-0.8-2.5-2.5v-8.4L215.2,25v22.6
			c0,1.7-0.8,2.5-2.5,2.5H202.5z"/>
		<path class="st0" d="M250.7,50.1c-1.7,0-2.5-0.8-2.5-2.5V3.2c0-1.7,0.8-2.5,2.5-2.5h31.8c1.7,0,2.5,0.8,2.5,2.5v8
			c0,1.7-0.8,2.5-2.5,2.5h-18.9V19H277c1.7,0,2.5,0.8,2.5,2.5v7.3c0,1.7-0.8,2.5-2.5,2.5h-13.4v5.9h18.9c1.7,0,2.5,0.8,2.5,2.5v8
			c0,1.7-0.8,2.5-2.5,2.5H250.7z"/>
		<path class="st0" d="M292.2,50.1c-1.7,0-2.5-0.8-2.5-2.5V3.2c0-1.7,0.8-2.5,2.5-2.5h10.6c1.7,0,2.5,0.8,2.5,2.5v34h9.4V26.1
			c0-1.7,0.8-2.5,2.5-2.5h9.9c1.7,0,2.5,0.8,2.5,2.5v21.6c0,1.7-0.8,2.5-2.5,2.5H292.2z"/>
		<path class="st0" d="M67.4,104.8c-1.7,0-2.5-0.8-2.5-2.5V57.8c0-1.7,0.8-2.5,2.5-2.5h22.8c10.3,0,13.5,4.7,13.5,11.5V70
			c0,3.8-1,6.6-3.8,7.8c5,0.5,8.3,4.2,8.3,9.9v14.5c0,1.7-0.8,2.5-2.5,2.5H95.1c-1.7,0-2.5-0.8-2.5-2.5V91.8c0-2.1-0.7-2.9-2.6-2.9
			h-9.6v13.4c0,1.7-0.8,2.5-2.5,2.5H67.4z M80.4,76.5h5.1c2.4,0,3-1.4,3-3.2v-2.3c0-1.9-0.6-3.2-3-3.2h-5.1V76.5z"/>
		<path class="st0" d="M132.7,105.8c-17.2,0-21.3-5.6-21.3-14V68.4c0-8.4,4.2-14.1,21.3-14.1S154,60,154,68.4v23.4
			C154,100.2,149.9,105.8,132.7,105.8z M132.7,92.6c5,0,5.8-1.4,5.8-3.2V70.9c0-1.8-0.8-3.2-5.8-3.2c-4.9,0-5.8,1.4-5.8,3.2v18.5
			C126.9,91.2,127.8,92.6,132.7,92.6z"/>
		<path class="st0" d="M175.4,104.8c-11.5,0-16.9-4.5-16.9-14V69.4c0-9.6,5.4-14.1,16.9-14.1h16.7c1.7,0,2.5,0.8,2.5,2.5v8.3
			c0,1.7-0.8,2.5-2.5,2.5h-13.8c-2.9,0-4.2,1.1-4.2,3.4v16.3c0,2.3,1.3,3.3,4.2,3.3h13.8c1.7,0,2.5,0.8,2.5,2.5v8.2
			c0,1.7-0.8,2.5-2.5,2.5H175.4z"/>
		<path class="st0" d="M201.4,104.8c-1.7,0-2.5-0.8-2.5-2.5V57.8c0-1.7,0.8-2.5,2.5-2.5H212c1.7,0,2.5,0.8,2.5,2.5v15.8h2.7l7.1-16
			c0.7-1.6,1.6-2.3,3.4-2.3h10.6c1.6,0,2.1,0.8,1.5,2.3l-7,16c5.1,0.3,8.4,3.8,8.4,9.3v19.3c0,1.7-0.8,2.5-2.5,2.5h-10.6
			c-1.7,0-2.5-0.8-2.5-2.5V88.9c0-1.5-0.8-2.3-2.2-2.3h-9.1v15.7c0,1.7-0.8,2.5-2.5,2.5H201.4z"/>
		<path class="st0" d="M250.5,104.8c-1.7,0-2.5-0.8-2.5-2.5V57.8c0-1.7,0.8-2.5,2.5-2.5h31.8c1.7,0,2.5,0.8,2.5,2.5v8
			c0,1.7-0.8,2.5-2.5,2.5h-18.9v5.3h13.4c1.7,0,2.5,0.8,2.5,2.5v7.3c0,1.7-0.8,2.5-2.5,2.5h-13.4v5.9h18.9c1.7,0,2.5,0.8,2.5,2.5v8
			c0,1.7-0.8,2.5-2.5,2.5H250.5z"/>
		<path class="st0" d="M303.9,104.8c-1.7,0-2.5-0.8-2.5-2.5V68.6h-10.1c-1.7,0-2.5-0.8-2.5-2.5v-8.3c0-1.7,0.8-2.5,2.5-2.5h36.2
			c1.7,0,2.5,0.8,2.5,2.5v8.3c0,1.7-0.8,2.5-2.5,2.5h-10.1v33.7c0,1.7-0.8,2.5-2.5,2.5H303.9z"/>
	</g>
	<g>
		<g>
			<polygon class="st1" points="28.4,65.7 27.1,65.7 24.4,65.7 23.1,65.7 21.1,76.9 24.4,76.9 27.1,76.9 30.4,76.9 			"/>
			<polygon class="st2" points="30.4,79.7 27.1,79.7 24.4,79.7 21.1,79.7 18.5,91 24.4,91 27.1,91 33.1,91 			"/>
			<polygon class="st3" points="35.1,93.8 27.1,93.8 24.4,93.8 16.5,93.8 9.8,105 24.4,105 27.1,105 41.8,105 			"/>
		</g>
		<g>
			<path class="st0" d="M24.8,0.4C15.1,9.7,9.3,25.5,10.1,40C3.7,46.7,0,55.8,0,65.2c0,0.5,11.3-3.5,11.3-3.5c0,0.8,0.7,1.4,1.4,1.4
				h26c0.4,0,0.8-0.2,1-0.4c0.2-0.2,0.4-0.6,0.4-0.9c0,0,11.3,3.8,11.3,3.4c0-9.3-3.7-18.3-10.1-25c0.8-14.6-5-30.4-14.7-39.6
				C26.2-0.1,25.3-0.1,24.8,0.4L24.8,0.4z"/>
		</g>
	</g>
</g>
</svg>
