<?xml version="1.0" encoding="utf-8"?>
<!-- Generator: Adobe Illustrator 25.2.0, SVG Export Plug-In . SVG Version: 6.00 Build 0)  -->
<svg version="1.1" id="Layer_1" xmlns="http://www.w3.org/2000/svg" xmlns:xlink="http://www.w3.org/1999/xlink" x="0px" y="0px"
	 viewBox="0 0 124.2 67.4" style="enable-background:new 0 0 124.2 67.4;" xml:space="preserve">
<style type="text/css">
	.st0{fill:#240635;}
	.st1{fill:#005691;}
	.st2{fill:#007BD4;}
	.st3{fill:#009EFB;}
	.st4{fill:#FFFFFF;}
	.st5{fill:#F2EBF7;}
	.st6{fill:#F50061;}
	.st7{fill:#FF4142;}
	.st8{fill:#FFAB00;}
</style>
<g>
	<g>
		<g>
			<path class="st0" d="M82,19c2.2,0,3.2-1,3.2-3.2v-10c0-2.2-1-3.2-3.2-3.2H42.3c-2.2,0-3.2,1-3.2,3.2v58.3c0,2.2,1,3.2,3.2,3.2
				h13.8c2.2,0,3.2-1,3.2-3.2V46.6h15.5c2.2,0,3.2-1,3.2-3.2V33.3c0-2.2-1-3.2-3.2-3.2H59.3V19H82z"/>
			<path class="st0" d="M113.4,31.9c3.7-1.6,5-5.2,5-10.1v-4.1c0-8.8-4.2-14.9-17.5-14.9h-8.1c-1.4,0-2.5,1.1-2.5,2.5v11.1
				c0,1.4,1.1,2.5,2.5,2.5v0h2.1c3.1,0,3.9,1.8,3.9,4.2v3c0,2.4-0.8,4.2-3.9,4.2c0,0-8.6,0-8.7,0c-1.1,0.2-2,1.2-2,2.4v11.1
				c0,1.4,1.1,2.5,2.5,2.5l0,0h14c2.5,0,3.4,1.2,3.4,3.8v13.6c0,2.2,1,3.2,3.2,3.2H121c2.2,0,3.2-1,3.2-3.2V44.8
				C124.2,37.3,119.9,32.6,113.4,31.9z"/>
		</g>
	</g>
	<g>
		<g>
			<polygon class="st1" points="18.3,42.2 17.4,42.2 15.7,42.2 14.8,42.2 13.6,49.4 15.7,49.4 17.4,49.4 19.5,49.4 			"/>
			<polygon class="st2" points="19.5,51.2 17.4,51.2 15.7,51.2 13.6,51.2 11.9,58.4 15.7,58.4 17.4,58.4 21.3,58.4 			"/>
			<polygon class="st3" points="22.5,60.2 17.4,60.2 15.7,60.2 10.6,60.2 6.3,67.4 15.7,67.4 17.4,67.4 26.8,67.4 			"/>
		</g>
		<g>
			<path class="st0" d="M15.9,0.3c-6.2,6-10,16.1-9.4,25.5C2.4,30,0,35.8,0,41.8c0,0.3,7.3-2.2,7.3-2.2c0,0.5,0.4,0.9,0.9,0.9h16.7
				c0.3,0,0.5-0.1,0.7-0.3c0.2-0.2,0.3-0.4,0.3-0.6c0,0,7.3,2.4,7.3,2.2c0-5.9-2.4-11.8-6.5-16c0.5-9.4-3.2-19.5-9.4-25.5
				C16.8-0.1,16.3-0.1,15.9,0.3L15.9,0.3z"/>
		</g>
	</g>
</g>
</svg>
