<?xml version="1.0" encoding="utf-8"?>
<!-- Generator: Adobe Illustrator 25.2.0, SVG Export Plug-In . SVG Version: 6.00 Build 0)  -->
<svg version="1.1" id="Layer_1" xmlns="http://www.w3.org/2000/svg" xmlns:xlink="http://www.w3.org/1999/xlink" x="0px" y="0px"
	 viewBox="0 0 82 82" style="enable-background:new 0 0 82 82;" xml:space="preserve">
<style type="text/css">
	.st0{fill:#240635;}
	.st1{fill:#005691;}
	.st2{fill:#007BD4;}
	.st3{fill:#009EFB;}
	.st4{fill:#FFFFFF;}
	.st5{fill:#F2EBF7;}
	.st6{fill:#F50061;}
	.st7{fill:#FF4142;}
	.st8{fill:#FFAB00;}
</style>
<g>
	<circle class="st0" cx="41" cy="41" r="41"/>
	<g>
		<g>
			<polygon class="st1" points="42.7,48.5 41.8,48.5 40.1,48.5 39.3,48.5 38,55.7 40.1,55.7 41.8,55.7 44,55.7 			"/>
			<polygon class="st2" points="44,57.5 41.8,57.5 40.1,57.5 38,57.5 36.3,64.7 40.1,64.7 41.8,64.7 45.7,64.7 			"/>
			<polygon class="st3" points="47,66.5 41.8,66.5 40.1,66.5 35,66.5 30.7,73.7 40.1,73.7 41.8,73.7 51.3,73.7 			"/>
		</g>
		<g>
			<path class="st4" d="M40.4,6.5c-6.2,6-10,16.1-9.4,25.5c-4.1,4.3-6.5,10.1-6.5,16.1c0,0.3,7.3-2.2,7.3-2.2c0,0.5,0.4,0.9,0.9,0.9
				h16.7c0.3,0,0.5-0.1,0.7-0.3c0.2-0.2,0.3-0.4,0.3-0.6c0,0,7.3,2.4,7.3,2.2c0-5.9-2.4-11.8-6.5-16c0.5-9.4-3.2-19.5-9.4-25.5
				C41.3,6.2,40.7,6.2,40.4,6.5L40.4,6.5z"/>
		</g>
	</g>
</g>
</svg>
